<?xml version="1.0" encoding="UTF-8"?>
<svg id="control-panel" xmlns="http://www.w3.org/2000/svg" xmlns:xlink="http://www.w3.org/1999/xlink" viewBox="0 0 206.81 741.45">
  <defs>
    <linearGradient id="linear-gradient" x1="129.36" y1="586.85" x2="77.45" y2="496.94" gradientUnits="userSpaceOnUse">
      <stop offset=".03" stop-color="#c49278"/>
      <stop offset=".25" stop-color="#fff"/>
      <stop offset=".59" stop-color="#423d3e"/>
      <stop offset="1" stop-color="#4d4648"/>
    </linearGradient>
    <linearGradient id="linear-gradient-2" x1="129.36" y1="473.27" y2="383.36" xlink:href="#linear-gradient"/>
    <linearGradient id="linear-gradient-3" y1="359.69" y2="269.78" xlink:href="#linear-gradient"/>
    <linearGradient id="linear-gradient-4" x1="129.36" y1="246.11" y2="156.2" xlink:href="#linear-gradient"/>
    <linearGradient id="linear-gradient-5" x1="129.36" y1="132.52" x2="77.45" y2="42.62" xlink:href="#linear-gradient"/>
    <linearGradient id="linear-gradient-6" y1="700.43" y2="610.52" xlink:href="#linear-gradient"/>
  </defs>

  <rect x="0" y="0" width="206.81" height="741.45" rx="33.97" ry="33.97" fill="#9b7c75" opacity=".53"/>

  <g id="n.5">
    <circle cx="103.4" cy="541.89" r="48.4" fill="#cdc6cc" stroke="url(#linear-gradient)" stroke-miterlimit="10" stroke-width="7"/>
    <path d="M111.25,530.94v7.4h-6.34l-.34,1.17c2.32.67,4.03,1.63,5.13,2.89,1.52,1.71,2.29,3.76,2.29,6.15,0,2.53-.93,4.63-2.79,6.3s-4.19,2.5-7.01,2.5c-1.9,0-3.78-.5-5.63-1.49v-6.34c1.47.72,2.77,1.08,3.89,1.08s2.07-.26,2.75-.79c.67-.53,1.01-1.25,1.01-2.15,0-1.02-.52-1.88-1.56-2.59s-2.32-1.06-3.84-1.06c-.58,0-1.35.11-2.3.32l2.78-13.39h11.97Z" fill="#69463f"/>
  </g>

  <g id="n.10">
    <circle cx="103.4" cy="428.31" r="48.4" fill="#cdc6cc" stroke="url(#linear-gradient-2)" stroke-miterlimit="10" stroke-width="7"/>
    <path d="M97.33,414.84v25.77h-7.31v-25.77h7.31Z" fill="#69463f"/>
    <path d="M106.45,430.55v-5.66c0-3.3.82-5.9,2.46-7.82,1.64-1.91,3.88-2.87,6.71-2.87s5.07.96,6.72,2.87c1.65,1.91,2.47,4.52,2.47,7.82v5.66c0,3.3-.82,5.91-2.47,7.83-1.65,1.92-3.89,2.88-6.72,2.88s-5.07-.96-6.71-2.88c-1.64-1.92-2.46-4.53-2.46-7.83ZM113.79,423.37v8.68c0,1.57.61,2.36,1.83,2.36s1.85-.79,1.85-2.36v-8.68c0-1.57-.62-2.36-1.85-2.36s-1.83.79-1.83,2.36Z" fill="#69463f"/>
  </g>

  <g id="n.15">
    <circle cx="103.4" cy="314.73" r="48.4" fill="#cdc6cc" stroke="url(#linear-gradient-3)" stroke-miterlimit="10" stroke-width="7"/>
    <path d="M97.41,299.91v25.77h-7.31v-25.77h7.31Z" fill="#69463f"/>
    <path d="M122.72,299.91v7.4h-6.34l-.34,1.17c2.32.67,4.03,1.63,5.13,2.89,1.52,1.71,2.29,3.76,2.29,6.15,0,2.53-.93,4.63-2.79,6.3-1.86,1.67-4.19,2.5-7.01,2.5-1.9,0-3.78-.5-5.63-1.49v-6.34c1.47.72,2.77,1.08,3.89,1.08s2.07-.26,2.75-.79c.67-.53,1.01-1.25,1.01-2.15,0-1.02-.52-1.88-1.56-2.59-1.04-.7-2.32-1.06-3.84-1.06-.58,0-1.35.11-2.3.32l2.78-13.39h11.97Z" fill="#69463f"/>
  </g>

  <g id="n.20">
    <circle cx="103.4" cy="201.15" r="48.4" fill="#cdc6cc" stroke="url(#linear-gradient-4)" stroke-miterlimit="10" stroke-width="7"/>
    <path d="M102.86,208.1v7.46h-16.65l8.27-15.52.28-.53c.23-.42.34-.82.34-1.23,0-1.02-.6-1.53-1.79-1.53-.47,0-.87.17-1.22.52s-.52.75-.52,1.22c0,.53.23,1.01.68,1.44l-3.3,5.89c-1.38-.86-2.45-1.94-3.19-3.27-.74-1.32-1.11-2.78-1.11-4.38,0-2.48.88-4.6,2.62-6.37,1.75-1.77,3.86-2.65,6.34-2.65s4.61.88,6.35,2.62,2.62,3.88,2.62,6.38c0,1.44-.32,2.77-.96,4l-3.06,5.95h4.3Z" fill="#69463f"/>
    <path d="M106.52,205.49v-5.66c0-3.3.82-5.9,2.46-7.82,1.64-1.91,3.88-2.87,6.71-2.87s5.07.96,6.72,2.87c1.65,1.91,2.47,4.52,2.47,7.82v5.66c0,3.3-.82,5.91-2.47,7.83-1.65,1.92-3.89,2.88-6.72,2.88s-5.07-.96-6.71-2.88c-1.64-1.92-2.46-4.53-2.46-7.83ZM113.87,198.32v8.68c0,1.57.61,2.36,1.83,2.36s1.85-.79,1.85-2.36v-8.68c0-1.57-.62-2.36-1.85-2.36s-1.83.79-1.83,2.36Z" fill="#69463f"/>
  </g>

  <g id="n.25">
    <circle cx="103.4" cy="87.57" r="48.4" fill="#cdc6cc" stroke="url(#linear-gradient-5)" stroke-miterlimit="10" stroke-width="7"/>
    <path d="M104.76,91.11v7.46h-16.65l8.27-15.52.28-.53c.23-.42.34-.82.34-1.23,0-1.02-.6-1.53-1.79-1.53-.47,0-.87.17-1.22.52s-.52.75-.52,1.22c0,.53.23,1.01.68,1.44l-3.3,5.89c-1.38-.86-2.45-1.94-3.19-3.27-.74-1.32-1.11-2.78-1.11-4.38,0-2.48.88-4.6,2.62-6.37,1.75-1.77,3.86-2.65,6.34-2.65s4.61.88,6.35,2.62,2.62,3.88,2.62,6.38c0,1.44-.32,2.77-.96,4l-3.06,5.95h4.3Z" fill="#69463f"/>
    <path d="M124.62,72.8v7.4h-6.34l-.34,1.17c2.32.67,4.03,1.63,5.13,2.89,1.52,1.71,2.29,3.76,2.29,6.15,0,2.53-.93,4.63-2.79,6.3-1.86,1.67-4.19,2.5-7.01,2.5-1.9,0-3.78-.5-5.63-1.49v-6.34c1.47.72,2.77,1.08,3.89,1.08s2.07-.26,2.75-.79c.67-.53,1.01-1.25,1.01-2.15,0-1.02-.52-1.88-1.56-2.59-1.04-.7-2.32-1.06-3.84-1.06-.58,0-1.35.11-2.3.32l2.78-13.39h11.97Z" fill="#69463f"/>
  </g>

  <g id="G">
    <circle id="G-2" cx="103.4" cy="655.47" r="48.4" fill="#cdc6cc" stroke="url(#linear-gradient-6)" stroke-miterlimit="10" stroke-width="7"/>
    <path d="M103.53,653.77h7.31c1.57,1.95,2.36,4.01,2.36,6.17,0,2.52-.92,4.63-2.77,6.34-1.84,1.71-4.11,2.57-6.81,2.57-3.5,0-6.47-1.33-8.91-3.98-2.44-2.66-3.66-5.89-3.66-9.7s1.24-7.01,3.73-9.55c2.49-2.54,5.59-3.81,9.32-3.81,1.27,0,2.68.26,4.23.77v7.67c-1.21-.57-2.31-.85-3.3-.85-1.8,0-3.27.56-4.41,1.68-1.14,1.12-1.71,2.57-1.71,4.36s.53,3.27,1.59,4.34c1.06,1.07,2.49,1.61,4.29,1.61,1.14,0,1.72-.33,1.72-1,0-.5-.38-.75-1.13-.75h-1.83v-5.85Z" fill="#69463f"/>
  </g>
</svg>
