<?xml version="1.0" encoding="UTF-8"?><svg id="result" xmlns="http://www.w3.org/2000/svg" xmlns:xlink="http://www.w3.org/1999/xlink" viewBox="0 0 378.07 213.58"><defs><linearGradient id="linear-gradient" x1="300.71" y1="215.44" x2="78.16" y2="-7.1" gradientUnits="userSpaceOnUse"><stop offset="0" stop-color="#f7b27b"/><stop offset=".44" stop-color="#d7ceca"/><stop offset="1" stop-color="#6d3902"/></linearGradient><linearGradient id="linear-gradient-2" x1="208.1" y1="205.9" x2="169.96" y2="167.76" xlink:href="#linear-gradient"/><linearGradient id="linear-gradient-3" x1="181.87" y1="146.04" x2="129.5" y2="93.67" gradientTransform="translate(171 303.7) rotate(-54.23) scale(.68 -.69)" xlink:href="#linear-gradient"/><linearGradient id="linear-gradient-4" x1="187.42" y1="177.46" x2="190.65" y2="196.2" xlink:href="#linear-gradient"/></defs><g id="b"><path d="M318.77,195.9c-10.52,17.13-31.82,22.4-48.5,12.17-19-11.65-46.55-23.28-80.9-23.03-33.64.24-60.58,11.78-79.19,23.29-16.49,10.19-37.59,5.18-48.27-11.61-18.57-29.22-37.15-58.45-55.72-87.67-11.24-17.68-6.72-41.69,10.07-53.43C50.26,31.81,108.06,1.29,183.98.04c80.86-1.33,142.51,31.2,177.75,55.85,16.63,11.64,21.36,35.28,10.48,52.99-17.81,29.01-35.63,58.01-53.44,87.02Z" fill="url(#linear-gradient)"/><path d="M312.01,185.54c-9.97,15.31-30.16,20.02-45.98,10.87-18.01-10.41-44.13-20.8-76.69-20.58-31.89.22-57.42,10.53-75.07,20.81-15.64,9.11-35.64,4.63-45.75-10.38-17.61-26.11-35.21-52.23-52.82-78.34-10.65-15.8-6.37-37.25,9.54-47.74C57.49,38.92,112.28,11.64,184.24,10.52c76.64-1.19,135.09,27.88,168.49,49.91,15.77,10.4,20.24,31.53,9.93,47.35-16.89,25.92-33.77,51.84-50.66,77.76Z" fill="#006838"/><rect x="155.84" y="174.83" width="66.38" height="24" rx="12" ry="12" fill="url(#linear-gradient-2)"/></g><g id="i"><path d="M140.89,155.96l40.24,33.08c4.7,3.86,11.67,3.21,12.59,1.71l.59-.76c.95-1.54-1.34-9.22-6.59-12.34l-44.37-26.38c-8.08-4.81-9.88-1.4-2.47,4.69Z" fill="url(#linear-gradient-3)"/><circle cx="189.03" cy="186.83" r="9.51" fill="url(#linear-gradient-4)"/></g></svg>